<?xml version="1.0" encoding="UTF-8"?>
<svg id="Layer_1" xmlns="http://www.w3.org/2000/svg" version="1.1" xmlns:xlink="http://www.w3.org/1999/xlink" viewBox="0 0 31.9 32">
  <!-- Generator: Adobe Illustrator 29.2.1, SVG Export Plug-In . SVG Version: 2.1.0 Build 116)  -->
  <defs>
    <style>
      .st0 {
        fill: #48bae0;
      }

      .st1 {
        fill: #23a2cd;
      }

      .st2 {
        fill: #85d1ea;
      }
    </style>
  </defs>
  <path class="st2" d="M30.2,25.8c-1.8-1.9-3.7-3.7-5.7-5.4l-7,5.5,2.6-9c-4.5-3.2-9.5-5.7-14.7-7.4l-5.3-1.5c5.6.7,11.1,1.6,16.4,3.5s8,3.5,11,6.6l2.8,7.6Z"/>
  <path class="st2" d="M31.9,14.7l-4.2,3.1c-1.9-1.9-4.1-3.4-6.5-4.7l1.6-6.1,2.8,6.8,6.2.8Z"/>
  <path class="st0" d="M17.1,15.4l1.4,3.6-4.4-3.4-4.8,3.6,1.9-5.8-3.4-2.6c3.2,1.2,6.3,2.8,9.3,4.6Z"/>
  <path class="st1" d="M7,10.4c.1.1-.5.3-.4.5l1.3,3-2.7-2-2.9,2.3,1.1-3.7L.4,8.6c2.3.4,4.4,1.2,6.6,1.9Z"/>
  <polygon class="st0" points="15.2 10.7 12.3 9.9 13.4 6.1 15.2 10.7"/>
  <polygon class="st1" points="5.5 8.4 4 8.2 4.5 6.1 5.5 8.4"/>
  <path class="st0" d="M19.7,11.5c-.1.1-.7.6-.8.6l-2.8-1.1,3.6.5Z"/>
</svg>