<?xml version="1.0" encoding="UTF-8"?>
<svg id="Layer_2" data-name="Layer 2" xmlns="http://www.w3.org/2000/svg" viewBox="0 0 73.48 15.25">
  <defs>
    <style>
      .cls-1 {
        fill: #fff;
      }

      .cls-2 {
        fill: #48bae0;
      }

      .cls-3 {
        fill: #23a2cd;
      }

      .cls-4 {
        fill: #85d1ea;
      }
    </style>
  </defs>
  <g id="Layer_1-2" data-name="Layer 1">
    <g>
      <path class="cls-4" d="M23.19,15.14c-1.41-1.43-2.82-2.88-4.39-4.15l-5.39,4.26,2.02-6.89c-3.46-2.47-7.29-4.39-11.33-5.72L0,1.51c4.27.52,8.57,1.25,12.64,2.67,3.09,1.08,6.19,2.68,8.44,5.09l2.12,5.88Z"/>
      <path class="cls-4" d="M24.52,6.65l-3.22,2.42c-1.44-1.47-3.16-2.65-4.98-3.6l1.25-4.66,2.17,5.2,4.78.64Z"/>
      <path class="cls-2" d="M13.19,7.18l1.11,2.75-3.39-2.61-3.7,2.79,1.46-4.5-2.6-1.97c2.5.91,4.85,2.17,7.12,3.54Z"/>
      <path class="cls-3" d="M5.37,3.34c.08.09-.42.27-.32.41l.99,2.31-2.08-1.53-2.26,1.79.81-2.84L.29,1.91c1.73.32,3.4.89,5.07,1.43Z"/>
      <polygon class="cls-2" points="11.72 3.56 9.48 2.94 10.33 0 11.72 3.56"/>
      <polygon class="cls-3" points="4.23 1.8 3.05 1.62 3.46 0 4.23 1.8"/>
      <path class="cls-2" d="M15.18,4.19c-.11.09-.54.44-.63.44l-2.16-.84,2.79.4Z"/>
    </g>
    <g>
      <path class="cls-1" d="M34.02,11.08v.12c-.3.11-.6.18-.9.22l-.13-.08c-.66-.98-1.24-1.94-1.76-2.88h-1.4v.46l.05,2.4h-.97l.06-2.32-.06-5.38h2.35c.75-.01,1.33.18,1.75.56s.62.92.62,1.63c0,.53-.14,1-.41,1.42s-.67.75-1.17.98c.53.87,1.19,1.83,1.99,2.88ZM29.83,7.63l1.44.04c.9-.26,1.34-.85,1.34-1.79,0-.49-.13-.85-.4-1.1s-.66-.37-1.19-.39l-1.16.04-.04,3.2Z"/>
      <path class="cls-1" d="M39.17,10.54l.07.07-.08.7h-3.64l.04-1.8-.04-4.18h3.66l.06.07-.07.7-1.51-.05h-1.25s-.01,1.82-.01,1.82h1.19s1.04-.02,1.04-.02l.06.08-.07.71-1.1-.04h-1.12s-.01.83-.01.83v1.14s1.19.01,1.19.01l1.6-.05Z"/>
      <path class="cls-1" d="M43.14,11.3h-1.07l-2.09-5.98h.92l.14.66,1.55,4.43h.06l1.72-4.39.14-.7h.9l-2.28,5.98Z"/>
      <path class="cls-1" d="M47.61,9.43l.02,1.87h-.89l.04-1.8-.04-4.18h.9l-.04,4.1Z"/>
      <path class="cls-1" d="M53.5,10.54l.07.07-.08.7h-3.64l.04-1.8-.04-4.18h3.66l.06.07-.07.7-1.51-.05h-1.25s-.01,1.82-.01,1.82h1.19s1.04-.02,1.04-.02l.06.08-.07.71-1.1-.04h-1.12s-.01.83-.01.83v1.14s1.19.01,1.19.01l1.6-.05Z"/>
      <path class="cls-1" d="M60.75,11.3h-.96l-1.18-3.26h-.07l-1.24,3.26h-.96l-1.96-5.98h.9l.11.64,1.46,4.34h.06l1.31-3.49-.49-1.49h.94l.13.71,1.46,4.27h.07l1.62-4.3.14-.68h.88l-2.23,5.98Z"/>
      <path class="cls-1" d="M65.11,6.06v1.97s1.02.01,1.02.01l1.06-.04.06.08-.06.68h-1.14s-.96,0-.96,0v.66l.02,1.87h-.89l.02-1.8-.02-4.18h3.48l.05.07-.07.7-1.48-.05h-1.09Z"/>
      <path class="cls-1" d="M71.25,9.59l.04,1.72h-.9l.05-1.72v-.37s-2.04-3.89-2.04-3.89h.98l.12.35,1.34,2.57h.06l1.46-2.53.16-.38h.96l-2.22,3.89v.37Z"/>
    </g>
  </g>
</svg>